<?xml version="1.0" standalone="no"?>
<!DOCTYPE svg PUBLIC "-//W3C//DTD SVG 20010904//EN"
 "http://www.w3.org/TR/2001/REC-SVG-20010904/DTD/svg10.dtd">
<svg version="1.0" xmlns="http://www.w3.org/2000/svg"
 width="240.000000pt" height="240.000000pt" viewBox="0 0 240.000000 240.000000"
 preserveAspectRatio="xMidYMid meet">
<metadata>
Created by potrace 1.11, written by Peter Selinger 2001-2013
</metadata>
<g transform="translate(0.000000,240.000000) scale(0.100000,-0.100000)"
fill="#000000" stroke="none">
<path d="M560 2265 c0 -33 2 -35 35 -35 33 0 35 2 35 35 0 33 -2 35 -35 35
-33 0 -35 -2 -35 -35z"/>
<path d="M1470 2265 c0 -33 -2 -35 -35 -35 l-35 0 0 -80 0 -80 -40 0 -40 0 0
-75 0 -75 -40 0 c-39 0 -40 -1 -40 -35 0 -33 -2 -35 -35 -35 -34 0 -35 -1 -35
-40 l0 -40 -40 0 -40 0 0 -155 0 -155 40 0 c39 0 40 -1 40 -35 0 -33 2 -35 35
-35 l35 0 0 -75 0 -75 -35 0 c-34 0 -35 -1 -35 -40 l0 -40 -40 0 -40 0 0 115
0 115 -40 0 -40 0 0 115 0 115 -35 0 c-33 0 -35 2 -35 35 0 34 -1 35 -40 35
l-40 0 0 40 0 40 -75 0 -75 0 0 40 0 40 -75 0 -75 0 0 -40 0 -40 -40 0 -40 0
0 -40 0 -40 -40 0 c-39 0 -40 -1 -40 -35 0 -33 -2 -35 -35 -35 -34 0 -35 -1
-35 -40 l0 -40 -40 0 -40 0 0 -75 0 -75 -40 0 -40 0 0 -155 0 -155 80 0 80 0
0 40 c0 39 1 40 35 40 34 0 35 1 35 40 l0 40 40 0 40 0 0 -40 0 -40 40 0 40 0
0 40 c0 39 1 40 35 40 33 0 35 2 35 35 0 34 1 35 40 35 39 0 40 -1 40 -35 0
-33 2 -35 35 -35 34 0 35 -1 35 -40 l0 -40 40 0 40 0 0 -40 0 -40 40 0 40 0 0
-75 0 -75 35 0 35 0 0 -75 0 -75 -35 0 -35 0 0 -155 0 -155 -115 0 -115 0 0
-115 0 -115 35 0 c33 0 35 -2 35 -35 0 -34 1 -35 40 -35 l40 0 0 -40 0 -40 75
0 75 0 0 75 0 75 40 0 40 0 0 -75 0 -75 75 0 75 0 0 40 0 40 40 0 c39 0 40 1
40 35 0 34 1 35 40 35 l40 0 0 40 c0 39 1 40 35 40 34 0 35 -1 35 -40 l0 -40
40 0 40 0 0 -75 0 -75 75 0 75 0 0 40 0 40 40 0 c39 0 40 1 40 35 0 33 2 35
35 35 34 0 35 1 35 40 l0 40 40 0 40 0 0 40 0 40 -40 0 c-39 0 -40 1 -40 35
l0 35 -75 0 -75 0 0 -35 c0 -33 -2 -35 -35 -35 -34 0 -35 -1 -35 -40 l0 -40
-40 0 -40 0 0 75 0 75 40 0 40 0 0 115 0 115 110 0 110 0 0 -40 0 -40 80 0 80
0 0 -75 0 -75 75 0 75 0 0 40 0 40 40 0 40 0 0 150 0 150 -40 0 -40 0 0 40 0
40 -40 0 -40 0 0 40 c0 39 -1 40 -35 40 -33 0 -35 2 -35 35 l0 35 -190 0 -190
0 0 -35 c0 -34 -1 -35 -40 -35 -39 0 -40 1 -40 35 0 34 -1 35 -40 35 l-40 0 0
40 0 40 40 0 40 0 0 40 0 40 40 0 c39 0 40 1 40 35 0 33 2 35 35 35 34 0 35 1
35 40 l0 40 40 0 c39 0 40 1 40 35 0 33 2 35 35 35 33 0 35 -2 35 -35 l0 -35
80 0 80 0 0 -40 c0 -39 1 -40 35 -40 l35 0 0 75 0 75 -35 0 c-34 0 -35 1 -35
40 l0 40 -80 0 -80 0 0 75 0 75 80 0 80 0 0 40 0 40 75 0 75 0 0 40 0 40 40 0
40 0 0 75 0 75 -40 0 c-39 0 -40 1 -40 35 l0 35 -115 0 -115 0 0 -75 0 -75
-40 0 c-39 0 -40 -1 -40 -35 0 -33 -2 -35 -35 -35 l-35 0 0 150 0 150 -40 0
-40 0 0 40 c0 39 -1 40 -35 40 -33 0 -35 2 -35 35 l0 35 -80 0 -80 0 0 -35z
m-460 -1905 c0 -39 -1 -40 -35 -40 -34 0 -35 1 -35 40 0 39 1 40 35 40 34 0
35 -1 35 -40z"/>
<path d="M20 2150 l0 -80 40 0 c39 0 40 -1 40 -35 l0 -35 75 0 75 0 0 35 c0
34 -1 35 -40 35 l-40 0 0 40 c0 39 -1 40 -35 40 -34 0 -35 1 -35 40 l0 40 -40
0 -40 0 0 -80z"/>
<path d="M2310 1045 c0 -33 -2 -35 -35 -35 -34 0 -35 -1 -35 -40 l0 -40 75 0
75 0 0 75 0 75 -40 0 c-39 0 -40 -1 -40 -35z"/>
<path d="M630 890 c0 -39 -1 -40 -35 -40 l-35 0 0 -75 0 -75 35 0 c34 0 35 1
35 40 l0 40 40 0 40 0 0 75 0 75 -40 0 -40 0 0 -40z"/>
</g>
</svg>
