<?xml version="1.0" standalone="no"?>
<!DOCTYPE svg PUBLIC "-//W3C//DTD SVG 20010904//EN"
 "http://www.w3.org/TR/2001/REC-SVG-20010904/DTD/svg10.dtd">
<svg version="1.0" xmlns="http://www.w3.org/2000/svg"
 width="260.000000pt" height="260.000000pt" viewBox="0 0 260.000000 260.000000"
 preserveAspectRatio="xMidYMid meet">
<metadata>
Created by potrace 1.11, written by Peter Selinger 2001-2013
</metadata>
<g transform="translate(0.000000,260.000000) scale(0.100000,-0.100000)"
fill="#000000" stroke="none">
<path d="M840 2555 c-9 -11 -10 -16 -2 -11 11 6 16 -4 13 -26 0 -4 6 -19 14
-34 8 -15 12 -31 9 -36 -3 -4 1 -8 8 -8 11 0 10 -2 0 -9 -11 -6 -10 -10 3 -15
10 -3 15 -12 11 -21 -3 -8 -1 -15 4 -15 6 0 10 -11 10 -25 0 -14 6 -25 13 -25
8 0 7 -4 -3 -10 -13 -8 -13 -10 1 -10 11 0 16 -8 15 -22 -1 -13 7 -36 18 -52
11 -16 14 -26 7 -22 -9 6 -10 4 -3 -10 26 -51 34 -73 28 -82 -3 -5 1 -15 9
-22 8 -7 12 -16 9 -21 -3 -5 0 -9 6 -9 7 0 10 -6 8 -12 -3 -7 1 -24 8 -37 7
-14 11 -28 8 -33 -3 -4 0 -8 5 -8 6 0 11 -11 11 -25 0 -14 4 -25 8 -25 4 0 9
-12 10 -27 1 -15 8 -30 15 -35 9 -6 8 -8 -3 -8 -13 0 -13 -1 0 -10 25 -16 4
-21 -25 -6 -16 8 -33 12 -38 9 -6 -3 -7 -1 -3 5 5 8 -1 12 -14 12 -12 0 -19 4
-16 8 3 5 -1 9 -9 10 -8 1 -22 3 -30 4 -8 1 -15 5 -15 10 0 5 -4 6 -10 3 -5
-3 -10 -1 -10 6 0 7 -3 9 -6 6 -4 -3 -16 -1 -28 5 -11 7 -24 11 -28 10 -5 -1
-8 2 -8 6 0 4 -9 8 -21 9 -12 1 -27 10 -35 20 -11 14 -13 15 -14 3 -1 -13 -2
-13 -13 0 -7 8 -28 16 -47 18 -29 2 -32 1 -17 -8 25 -16 21 -30 -8 -30 -22 0
-25 -4 -25 -40 l0 -40 -40 0 -40 0 0 -40 0 -40 -40 0 c-33 0 -40 -4 -40 -19 0
-22 -33 -34 -49 -18 -6 6 -11 7 -11 3 0 -5 -7 -3 -15 4 -8 7 -15 9 -15 5 0 -4
-8 -1 -17 6 -11 10 -14 10 -9 2 4 -7 2 -13 -3 -13 -6 0 -11 5 -11 10 0 6 -5
10 -11 10 -5 0 -8 -4 -5 -9 4 -5 -3 -7 -14 -4 -11 3 -20 10 -20 16 0 8 -3 8
-11 0 -12 -12 -61 -5 -53 8 3 5 -5 5 -18 0 -16 -6 -31 -5 -44 2 -10 6 -30 12
-44 13 -14 2 -42 4 -63 7 -30 3 -35 2 -26 -9 6 -8 15 -11 20 -8 5 3 9 0 9 -6
0 -6 4 -9 9 -6 5 3 12 -1 15 -10 3 -8 10 -12 16 -9 5 3 10 1 10 -4 0 -6 7 -11
15 -11 8 0 15 -3 15 -8 0 -4 18 -15 40 -25 22 -9 40 -22 40 -28 0 -5 4 -7 10
-4 6 3 10 1 10 -5 0 -6 5 -8 10 -5 6 3 10 1 10 -6 0 -7 3 -10 6 -6 3 3 17 -4
30 -16 21 -18 24 -29 24 -89 l0 -68 -40 0 -40 0 0 -155 0 -155 70 0 c39 0 73
0 78 0 4 0 8 18 10 40 3 38 5 40 38 40 33 0 34 1 34 40 l0 40 40 0 40 0 0 -40
0 -40 40 0 40 0 0 40 c0 39 1 40 35 40 34 0 35 1 36 38 0 20 3 31 6 25 2 -7 9
-13 14 -13 6 0 15 -5 22 -10 48 -41 61 -49 68 -45 4 3 10 1 14 -5 6 -10 -8
-19 -42 -25 -10 -2 -20 -4 -23 -5 -3 -1 -8 -2 -12 -1 -5 0 -8 -4 -8 -10 0 -5
-4 -8 -9 -4 -5 3 -12 1 -16 -5 -4 -6 -11 -8 -16 -5 -5 4 -9 1 -9 -5 0 -6 -4
-9 -9 -5 -5 3 -13 0 -16 -6 -4 -5 -13 -8 -21 -5 -7 3 -16 1 -20 -5 -3 -6 -13
-8 -21 -5 -8 3 -11 1 -8 -4 3 -6 -5 -10 -19 -10 -14 0 -28 -5 -32 -11 -4 -8
-9 -7 -15 2 -7 11 -9 10 -9 -3 0 -10 -3 -17 -7 -16 -5 1 -25 -4 -45 -11 -21
-7 -43 -9 -49 -5 -7 4 -9 3 -6 -3 7 -11 -25 -26 -55 -26 -10 0 -18 -7 -18 -16
0 -10 -3 -12 -8 -5 -10 16 -75 -12 -66 -28 6 -9 9 -9 12 0 3 10 7 10 18 1 10
-8 18 -8 27 -1 7 6 18 7 25 3 7 -4 26 -7 42 -6 17 1 30 -3 30 -9 0 -6 4 -5 9
3 6 9 11 10 15 2 5 -7 13 -8 25 -1 10 5 21 7 24 3 4 -3 35 -7 69 -9 35 -2 69
-6 76 -9 6 -2 12 1 12 8 0 8 3 9 8 1 4 -6 22 -10 40 -9 17 1 32 -3 32 -9 0 -6
5 -5 12 2 7 7 17 8 30 1 13 -7 18 -6 18 3 0 10 3 9 9 -1 8 -13 12 -13 27 0 15
12 17 12 9 0 -6 -11 -4 -13 8 -8 9 3 19 2 22 -3 3 -5 -4 -11 -15 -15 -11 -4
-18 -11 -15 -16 4 -5 -1 -9 -11 -9 -9 0 -23 -8 -30 -17 -13 -17 -13 -17 -14 0
0 13 -9 17 -40 17 l-40 0 0 -40 c0 -39 -1 -40 -35 -40 -30 0 -35 -3 -35 -23 0
-24 -27 -57 -47 -57 -6 0 -21 -11 -34 -25 -13 -13 -35 -25 -49 -25 -20 0 -22
-2 -10 -10 13 -8 12 -10 -2 -10 -10 0 -18 -5 -18 -11 0 -5 -4 -7 -10 -4 -5 3
-10 1 -10 -4 0 -6 -6 -11 -14 -11 -8 0 -17 -7 -20 -16 -3 -8 -10 -13 -15 -10
-5 3 -20 -5 -35 -19 -14 -13 -26 -21 -26 -17 0 4 -4 2 -8 -4 -4 -5 -24 -20
-44 -33 -21 -12 -42 -30 -48 -39 -7 -13 -9 -14 -10 -3 0 11 -4 9 -14 -5 -8
-10 -20 -19 -28 -19 -7 -1 -12 -6 -10 -13 1 -7 -1 -11 -5 -11 -21 3 -34 -2
-31 -13 5 -14 38 -20 38 -6 0 6 7 4 17 -3 9 -8 14 -9 10 -3 -4 7 0 14 8 18 8
3 15 1 15 -5 0 -6 7 -3 16 5 12 13 20 14 36 5 15 -8 19 -8 14 0 -6 9 17 16 27
9 2 -2 11 3 20 11 14 11 17 11 17 0 0 -9 3 -10 8 -4 6 9 18 13 47 18 6 1 13 7
17 12 5 6 8 5 8 -4 0 -11 3 -11 15 -1 8 7 15 9 15 5 0 -4 6 -2 13 4 8 6 17 8
20 4 4 -3 12 -1 19 4 7 6 27 10 45 9 17 0 29 3 25 8 -3 5 2 7 11 3 9 -3 19 -2
23 4 3 6 18 9 34 7 15 -1 35 4 44 11 13 11 16 11 16 0 1 -11 3 -11 13 1 7 9
20 14 31 12 10 -2 23 1 29 7 14 14 30 14 21 0 -3 -6 5 -4 18 5 14 9 28 13 32
9 4 -4 11 -1 17 7 8 13 10 13 19 0 7 -12 10 -12 10 -1 0 7 6 11 15 7 8 -3 15
-1 15 5 0 6 7 9 15 6 8 -4 17 -2 20 3 3 5 12 7 20 3 12 -4 15 -25 15 -89 l0
-84 -115 0 -115 0 0 -115 0 -115 35 0 c33 0 35 -2 35 -35 0 -34 1 -35 40 -35
l40 0 0 -40 0 -40 73 0 c66 0 73 -2 74 -20 1 -13 -2 -18 -10 -13 -9 5 -9 3 0
-8 6 -8 10 -28 8 -46 -4 -47 9 -59 29 -28 10 15 15 29 12 32 -3 3 5 16 17 27
13 12 21 28 19 35 -3 8 0 11 7 7 6 -4 11 -2 11 3 0 7 27 11 70 11 l70 0 0 40
0 40 40 0 c39 0 40 1 40 35 0 34 1 35 40 35 l40 0 0 40 c0 39 1 40 35 40 34 0
35 -1 35 -40 l0 -40 40 0 40 0 0 -75 0 -75 75 0 75 0 0 40 0 40 40 0 c39 0 40
1 40 35 0 33 2 35 35 35 34 0 35 1 35 40 l0 40 40 0 40 0 0 40 0 40 -40 0
c-39 0 -40 1 -40 34 0 19 5 38 10 41 6 3 10 1 10 -5 0 -6 7 -18 15 -26 8 -9
15 -13 15 -10 0 2 33 -28 73 -68 40 -40 79 -70 86 -68 8 3 11 0 8 -5 -7 -10
27 -43 44 -43 5 0 7 -5 4 -11 -4 -6 2 -13 14 -16 12 -3 21 -12 21 -19 0 -8 5
-14 10 -14 6 0 27 -18 49 -40 21 -22 43 -40 49 -40 6 0 13 -9 17 -20 3 -11 10
-19 14 -17 4 1 21 -12 37 -29 16 -16 37 -33 47 -37 9 -3 17 -14 17 -22 0 -10
5 -13 12 -9 8 5 9 2 5 -10 -4 -11 -3 -15 4 -10 11 7 51 -30 43 -40 -2 -3 -1
-4 3 -1 11 9 12 35 2 35 -6 0 -7 5 -3 12 4 6 3 8 -3 5 -6 -4 -17 1 -24 10 -12
14 -12 16 0 8 9 -5 5 5 -7 22 -13 19 -20 39 -16 50 5 15 4 15 -5 3 -10 -14
-12 -13 -15 10 0 6 -7 15 -15 19 -7 5 -10 14 -7 20 4 6 2 11 -3 11 -6 0 -11 9
-11 21 0 11 -5 17 -10 14 -6 -3 -10 3 -10 14 0 12 -5 21 -11 21 -5 0 -7 4 -4
10 3 5 1 10 -5 10 -6 0 -8 4 -5 10 3 6 2 10 -3 10 -8 0 -20 28 -20 47 0 3 -6
9 -14 14 -7 5 -13 13 -13 19 0 6 -7 15 -15 20 -12 8 -12 10 -1 10 8 0 4 8 -10
21 -13 11 -17 18 -9 14 10 -4 9 -1 -3 8 -10 9 -15 21 -11 31 4 11 2 16 -7 14
-8 -2 -13 3 -11 10 1 6 -3 12 -9 12 -5 0 -7 5 -4 10 3 6 2 10 -2 10 -5 0 -10
18 -11 40 l-3 40 41 0 40 0 0 150 0 150 -40 0 -40 0 0 40 0 40 -40 0 -40 0 0
40 c0 39 -1 40 -35 40 -21 0 -35 5 -35 13 0 21 14 34 33 31 9 -1 17 2 17 7 0
4 7 6 15 3 8 -4 15 -1 15 5 0 6 7 8 15 5 9 -4 15 0 15 7 0 11 3 11 10 -1 8
-12 10 -12 10 -1 0 8 7 11 20 8 14 -3 20 0 20 10 0 12 3 13 14 4 10 -8 15 -9
18 -1 2 6 14 11 28 12 14 1 31 6 37 11 7 5 19 7 27 4 11 -4 13 -1 9 11 -6 15
-5 15 10 3 9 -7 17 -9 17 -4 0 5 6 10 13 11 6 1 26 4 42 7 17 3 35 7 41 7 6 1
11 7 11 14 0 7 -7 10 -15 6 -9 -3 -13 -1 -9 4 3 5 -2 10 -11 11 -41 4 -58 9
-69 23 -7 8 -13 11 -13 6 0 -5 -7 -3 -15 4 -8 6 -19 9 -25 5 -5 -3 -10 -1 -10
4 0 6 -9 11 -20 11 -11 0 -20 5 -20 10 0 6 -11 10 -24 10 -13 0 -27 6 -29 13
-4 9 -6 9 -6 -1 -1 -10 -5 -9 -17 3 -10 9 -25 14 -36 12 -11 -3 -16 -1 -11 6
4 7 0 8 -11 4 -10 -4 -15 -3 -11 3 3 6 1 10 -4 10 -7 0 -11 27 -11 70 l0 70
-35 0 c-34 0 -35 1 -35 40 0 22 -4 40 -8 40 -5 0 -9 7 -9 15 0 8 4 12 9 9 4
-3 8 2 8 11 0 8 5 24 10 35 6 11 14 29 20 39 6 14 6 21 -3 24 -9 4 -9 6 1 6 6
1 12 8 12 17 0 9 5 12 12 8 6 -4 8 -3 4 4 -3 6 -2 22 4 36 8 22 16 26 50 26
l40 0 0 40 0 40 40 0 40 0 0 75 0 75 -42 0 c-32 0 -39 3 -28 10 8 5 11 10 6
10 -5 0 -3 7 4 15 7 8 9 15 4 15 -5 0 0 7 10 15 14 10 15 15 6 15 -11 0 -11 3
-2 12 7 7 12 20 12 30 0 10 4 18 9 18 8 0 25 56 22 73 0 4 4 7 10 7 5 0 7 4 4
10 -3 5 2 21 11 35 9 14 12 25 8 25 -5 0 -2 5 6 10 11 7 11 10 2 10 -7 0 -10
5 -7 10 4 6 11 7 17 4 7 -4 8 -2 4 4 -5 9 -13 9 -27 2 -11 -6 -17 -15 -14 -21
4 -5 -1 -9 -9 -9 -8 0 -18 -4 -21 -10 -3 -6 1 -7 12 -4 10 3 6 -2 -9 -11 -16
-8 -28 -20 -28 -26 0 -6 -3 -8 -7 -6 -10 6 -34 -19 -26 -27 4 -3 1 -6 -6 -6
-15 0 -61 -45 -61 -59 0 -6 -11 -13 -25 -17 -14 -4 -24 -9 -21 -11 13 -13 -54
-53 -88 -53 -34 0 -36 -2 -36 -33 0 -25 -10 -44 -38 -75 -22 -23 -43 -42 -49
-42 -5 0 -16 -11 -23 -25 -7 -14 -19 -25 -27 -25 -10 0 -13 30 -13 140 l0 140
-40 0 -40 0 0 40 c0 39 -1 40 -35 40 -33 0 -35 2 -35 35 0 32 -3 35 -29 35
-16 0 -35 8 -42 17 -12 14 -12 15 -1 9 11 -7 12 -4 3 13 -7 11 -8 21 -4 21 4
0 2 5 -5 12 -9 9 -15 9 -24 -1 -10 -11 -10 -13 0 -7 13 8 17 -6 5 -18 -4 -4
-8 -15 -8 -24 0 -11 -10 -18 -27 -20 -25 -3 -28 -8 -28 -38 0 -32 -2 -34 -35
-34 l-35 0 0 -80 0 -80 -40 0 -40 0 0 -75 0 -75 -30 2 c-16 1 -30 8 -30 14 0
7 -16 21 -35 33 -19 11 -35 25 -35 31 0 6 -11 21 -25 34 -13 13 -21 27 -17 31
4 5 2 5 -4 2 -13 -8 -66 48 -56 59 4 4 1 4 -6 0 -7 -4 -15 -1 -18 8 -3 9 -13
16 -21 16 -8 0 -12 4 -8 9 3 6 -4 15 -15 21 -11 6 -18 15 -15 21 4 5 0 9 -8 9
-8 0 -18 7 -21 16 -3 9 -11 12 -18 8 -7 -4 -10 -4 -6 0 10 11 -43 67 -56 59
-6 -3 -8 -3 -4 2 4 4 -8 23 -27 42 -19 19 -35 38 -35 42 0 4 -11 14 -25 21
-14 7 -25 19 -25 27 0 7 -4 13 -9 13 -5 0 -11 7 -13 17 -3 14 -5 14 -18 -2z
m1270 -1085 c0 -11 -7 -20 -15 -20 -8 0 -15 4 -15 9 0 5 -7 8 -16 7 -9 0 -19
5 -21 12 -3 8 7 12 31 12 29 0 36 -4 36 -20z m-349 -722 c10 -10 21 -18 25
-18 4 0 17 -11 30 -26 13 -14 24 -22 24 -18 0 4 14 -10 30 -31 17 -21 30 -35
30 -31 0 4 11 -4 25 -18 14 -14 25 -28 25 -31 0 -3 -34 -5 -75 -5 l-75 0 0
-35 c0 -33 -2 -35 -35 -35 -34 0 -35 -1 -35 -40 l0 -40 -40 0 -40 0 0 75 0 75
40 0 40 0 1 113 c0 61 3 105 6 97 3 -8 14 -23 24 -32z m-666 -258 c-3 -5 -2
-10 4 -10 6 0 8 -7 5 -15 -4 -8 -10 -12 -15 -9 -14 8 -10 -3 7 -20 14 -15 12
-16 -20 -16 -35 0 -36 1 -36 40 0 38 2 40 31 40 17 0 28 -4 24 -10z"/>
<path d="M660 2365 c0 -33 2 -35 35 -35 33 0 35 2 35 35 0 33 -2 35 -35 35
-33 0 -35 -2 -35 -35z"/>
<path d="M120 2250 l0 -80 40 0 c39 0 40 -1 40 -35 l0 -35 75 0 75 0 0 35 c0
34 -1 35 -40 35 l-40 0 0 40 c0 39 -1 40 -35 40 -34 0 -35 1 -35 40 l0 40 -40
0 -40 0 0 -80z"/>
<path d="M2410 1145 c0 -33 -2 -35 -35 -35 -34 0 -35 -1 -35 -40 l0 -40 75 0
75 0 0 75 0 75 -40 0 c-39 0 -40 -1 -40 -35z"/>
<path d="M143 555 c-10 -11 -9 -13 7 -12 20 1 26 12 13 20 -5 3 -14 -1 -20 -8z"/>
</g>
</svg>
